<mxfile host="app.diagrams.net" agent="Mozilla/5.0 (Windows NT 10.0; Win64; x64) AppleWebKit/537.36 (KHTML, like Gecko) Chrome/131.0.0.0 Safari/537.36" version="26.0.2">
  <diagram name="Page-1" id="Ve6AKhZev0prQEUSMhcG">
    <mxGraphModel dx="1050" dy="557" grid="1" gridSize="10" guides="1" tooltips="1" connect="1" arrows="1" fold="1" page="1" pageScale="1" pageWidth="827" pageHeight="1169" math="0" shadow="0">
      <root>
        <mxCell id="0" />
        <mxCell id="1" parent="0" />
        <mxCell id="8-pPZTOirNTMqsGEtx5T-1" style="edgeStyle=orthogonalEdgeStyle;rounded=1;orthogonalLoop=1;jettySize=auto;html=1;entryX=1;entryY=0.5;entryDx=0;entryDy=0;exitX=1;exitY=0.5;exitDx=0;exitDy=0;curved=0;" parent="1" source="Fns-NLv8KHA7JG8k3tlo-2" target="Fns-NLv8KHA7JG8k3tlo-5" edge="1">
          <mxGeometry relative="1" as="geometry">
            <Array as="points">
              <mxPoint x="620" y="415" />
              <mxPoint x="620" y="595" />
            </Array>
          </mxGeometry>
        </mxCell>
        <mxCell id="8-pPZTOirNTMqsGEtx5T-9" value="action" style="edgeLabel;html=1;align=center;verticalAlign=middle;resizable=0;points=[];fontSize=17;" parent="8-pPZTOirNTMqsGEtx5T-1" vertex="1" connectable="0">
          <mxGeometry x="0.1" y="2" relative="1" as="geometry">
            <mxPoint x="38" y="-5" as="offset" />
          </mxGeometry>
        </mxCell>
        <mxCell id="Fns-NLv8KHA7JG8k3tlo-2" value="Agent" style="ellipse;whiteSpace=wrap;fillColor=#dae8fc;strokeColor=#6c8ebf;fontFamily=Helvetica;fontSize=17;" parent="1" vertex="1">
          <mxGeometry x="390" y="365" width="100" height="100" as="geometry" />
        </mxCell>
        <mxCell id="Fns-NLv8KHA7JG8k3tlo-5" value="Environment" style="whiteSpace=wrap;fillColor=#d5e8d4;strokeColor=#82b366;rounded=1;fontFamily=Helvetica;fontSize=17;" parent="1" vertex="1">
          <mxGeometry x="350" y="550" width="180" height="90" as="geometry" />
        </mxCell>
        <mxCell id="8-pPZTOirNTMqsGEtx5T-6" style="edgeStyle=orthogonalEdgeStyle;rounded=1;orthogonalLoop=1;jettySize=auto;html=1;exitX=0;exitY=0.75;exitDx=0;exitDy=0;entryX=0.03;entryY=0.24;entryDx=0;entryDy=0;entryPerimeter=0;curved=0;" parent="1" source="Fns-NLv8KHA7JG8k3tlo-5" target="Fns-NLv8KHA7JG8k3tlo-2" edge="1">
          <mxGeometry relative="1" as="geometry">
            <Array as="points">
              <mxPoint x="220" y="618" />
              <mxPoint x="220" y="389" />
            </Array>
          </mxGeometry>
        </mxCell>
        <mxCell id="8-pPZTOirNTMqsGEtx5T-11" value="observation" style="edgeLabel;html=1;align=center;verticalAlign=middle;resizable=0;points=[];fontSize=17;" parent="8-pPZTOirNTMqsGEtx5T-6" vertex="1" connectable="0">
          <mxGeometry x="-0.396" y="3" relative="1" as="geometry">
            <mxPoint x="-57" y="-86" as="offset" />
          </mxGeometry>
        </mxCell>
        <mxCell id="8-pPZTOirNTMqsGEtx5T-8" style="edgeStyle=orthogonalEdgeStyle;rounded=1;orthogonalLoop=1;jettySize=auto;html=1;exitX=0;exitY=0.25;exitDx=0;exitDy=0;entryX=-0.01;entryY=0.65;entryDx=0;entryDy=0;entryPerimeter=0;curved=0;" parent="1" source="Fns-NLv8KHA7JG8k3tlo-5" target="Fns-NLv8KHA7JG8k3tlo-2" edge="1">
          <mxGeometry relative="1" as="geometry">
            <Array as="points">
              <mxPoint x="250" y="573" />
              <mxPoint x="250" y="430" />
            </Array>
          </mxGeometry>
        </mxCell>
        <mxCell id="8-pPZTOirNTMqsGEtx5T-10" value="reward" style="edgeLabel;html=1;align=center;verticalAlign=middle;resizable=0;points=[];fontSize=17;" parent="8-pPZTOirNTMqsGEtx5T-8" vertex="1" connectable="0">
          <mxGeometry x="-0.1219" y="1" relative="1" as="geometry">
            <mxPoint x="41" y="-5" as="offset" />
          </mxGeometry>
        </mxCell>
      </root>
    </mxGraphModel>
  </diagram>
</mxfile>
